# xmcd
#
# Track frame offsets: 
#        150
#        13870
#        26137
#        38472
#        52285
#        65962
#        80607
#        94995
#        107110
#        118810
#        130912
#        143810
#        156240
#        169495
#        182772
#        196552
#        210465
#        223175
#        236137
#        250467
#        262897
#        275272
#        289037
#        301885
#
# Disc length: 4193 seconds
#
# Revision: 1
# Processed by: cddbd v1.5.2PL0 Copyright (c) Steve Scherf et al.
# Submitted via: ExactAudioCopyFreeDBPlugin 1.0
#
DISCID=70105f18
DTITLE=T-Bone Walker - The Complete Recordings of T-Bone Walker, 1940-
DTITLE=1954 (Mosaic box set]
DYEAR=1990
DGENRE=Blues
TTITLE0=Hard Pain Blues
TTITLE1=I Know Your Wig is Gone
TTITLE2=T-Bone Jumps Again
TTITLE3=Call it Stormy Monday (alternate take)
TTITLE4=Call it Stormy Monday
TTITLE5=She Had to Let Me Down (alternate take)
TTITLE6=She Had to Let Me Down
TTITLE7=She's My Old Time Used to Be
TTITLE8=Dream Girl Blues (alternate take)
TTITLE9=Dream Girl Blues
TTITLE10=Midnight Blues (alternate take)
TTITLE11=Midnight Blues
TTITLE12=Long Lost Lover Blues (alternate take)
TTITLE13=Long Lost Lover Blues
TTITLE14=Triflin' Woman Blues (alternate take)
TTITLE15=Triflin' Woman Blues
TTITLE16=Long Skirt Baby Blues (alternate take)
TTITLE17=Long Skirt Baby Blues
TTITLE18=Goodbye Blues
TTITLE19=Too Much Trouble Blues (alternate take)
TTITLE20=Too Much Trouble Blues
TTITLE21=I'm Waiting for Your Call
TTITLE22=Hypin' Woman Blues (alternate take)
TTITLE23=Hypin' Woman Blues
EXTD=#2319 of 7500 8-D
EXTT0=
EXTT1=
EXTT2=
EXTT3=
EXTT4=
EXTT5=
EXTT6=
EXTT7=
EXTT8=
EXTT9=
EXTT10=
EXTT11=
EXTT12=
EXTT13=
EXTT14=
EXTT15=
EXTT16=
EXTT17=
EXTT18=
EXTT19=
EXTT20=
EXTT21=
EXTT22=
EXTT23=
PLAYORDER=
